<svg id="Layer_1" data-name="Layer 1" xmlns="http://www.w3.org/2000/svg" xmlns:xlink="http://www.w3.org/1999/xlink" viewBox="0 0 2902.63 2902.68"><defs><style>.cls-1{fill:none;}.cls-2{fill:#8dc63f;}.cls-3{clip-path:url(#clip-path);}.cls-4{fill:#009444;}.cls-5{clip-path:url(#clip-path-2);}.cls-6{fill:#fff;}</style><clipPath id="clip-path"><rect class="cls-1" x="602.41" y="57.47" width="823.73" height="2787.75"/></clipPath><clipPath id="clip-path-2"><path class="cls-1" d="M1380.25,58.64C1108.62,72.39,870.54,215.77,727,452.05A854.31,854.31,0,0,0,602.41,896.18v.08a847.87,847.87,0,0,0,76.7,352.24l703.58,1503.85h43.45V1314.87c-225.62,0-409.17-183.57-409.17-409.17s183.55-409.15,409.17-409.15V57.47c-15.41,0-30.68.41-45.89,1.17"/></clipPath></defs><title>Sageloc logo</title><path class="cls-2" d="M2175.57,452C2032.05,215.78,1793.94,72.39,1522.3,58.66q-22.79-1.17-45.81-1.2V496.54h0c225.61,0,409.15,183.57,409.15,409.16s-183.54,409.17-409.15,409.17h0V2845.19l747.24-1597.13C2340.63,992,2322.72,694.19,2175.57,452Z"/><g class="cls-3"><path class="cls-4" d="M1426.14,1314.87c-225.62,0-409.17-183.57-409.17-409.17s183.55-409.15,409.17-409.17V57.46q-23.1,0-45.87,1.2C1108.61,72.38,870.53,215.78,727,452,579.86,694.19,562,992,679.09,1248.5l747.05,1596.71V1314.87Z"/></g><g class="cls-5"><path class="cls-6" d="M1196.71,2797.07l-14.34-12.75,293.27-329.62,14.34,12.75Zm-45.42-204.17L1137,2580.15l300.77-338,146.8,180.67-14.89,12.1-132.57-163.16ZM1746.67,2339l-309.28-380.63L1128.12,2339l-14.9-12.09,324.17-399,324.17,399Zm139-142.65-448.3-551.73L989.17,2196.26l-14.89-12.1,463.11-570,463.19,570.06Zm110.67-177.55-559-687.95-558.93,687.9-14.89-12.1,573.82-706.23,573.86,706.27Zm-1203.07-209-14.89-12.1,659-811.08,659,811-14.89,12.1L1437.39,1017.1ZM2116.06,1538.6,1437.39,703.35,759.63,1537.5l-14.89-12.1,692.65-852.49L2131,1526.49ZM562.94,1465.8l-14.89-12.1L1437.39,359.15l735.26,904.92-14.89,12.1L1437.39,389.58ZM438.22,1289.49l-14.81-12.2,1014-1231.83,735.21,904.85-14.89,12.1L1437.34,75.77Zm-44.67-217.85-14.82-12.2L1385.31-163.35l14.81,12.2Z"/></g></svg>