<svg id="Layer_1" data-name="Layer 1" xmlns="http://www.w3.org/2000/svg" xmlns:xlink="http://www.w3.org/1999/xlink" viewBox="0 0 2902.63 2902.68"><defs><style>.cls-1{fill:none;}.cls-2{fill:#8dc63f;}.cls-3{clip-path:url(#clip-path);}.cls-4{fill:#009444;}.cls-5{clip-path:url(#clip-path-2);}.cls-6{fill:#fff;}.cls-7{fill:#231f20;}</style><clipPath id="clip-path"><rect class="cls-1" x="743.07" y="58.13" width="687.25" height="2325.85"/></clipPath><clipPath id="clip-path-2"><path class="cls-1" d="M1392,59.11C1165.4,70.57,966.76,190.2,847,387.33a712.65,712.65,0,0,0-104,370.54v.07a707.32,707.32,0,0,0,64,293.88l587,1254.68h36.25V1107.19c-188.23,0-341.37-153.15-341.37-341.37s153.14-341.36,341.37-341.36V58.13q-19.29,0-38.28,1"/></clipPath></defs><title>Sageloc logo</title><path class="cls-2" d="M2055.57,387.32c-119.74-197.11-318.4-316.74-545-328.2q-19-1-38.22-1V424.45h0c188.22,0,341.35,153.15,341.35,341.37s-153.13,341.37-341.35,341.37h0V2384l623.43-1332.51C2193.28,837.78,2178.34,589.35,2055.57,387.32Z"/><g class="cls-3"><path class="cls-4" d="M1430.31,1107.19c-188.24,0-341.38-153.15-341.38-341.37s153.14-341.36,341.38-341.38V58.12q-19.26,0-38.27,1C1165.39,70.57,966.76,190.21,847,387.33c-122.78,202-137.72,450.44-40,664.49L1430.31,2384h0Z"/></g><g class="cls-5"><path class="cls-6" d="M1238.89,2343.81l-12-10.64,244.68-275,12,10.64ZM1201,2173.47l-12-10.64,250.93-282,122.48,150.74L1550,2041.64l-110.61-136.12Zm496.73-211.82-258-317.57-258,317.57-12.43-10.09,270.46-332.87,270.45,332.87Zm116-119-374-460.31-374,460.22-12.42-10.09,386.38-475.52,386.44,475.61Zm92.33-148.14-466.35-574L973.38,1694.46,961,1684.36l478.75-589.22,478.78,589.26ZM902.32,1520.15l-12.43-10.09,549.81-676.7L1989.46,1510,1977,1520.1,1439.7,858.76Zm1103.6-226.3L1439.7,597,874.24,1292.93l-12.43-10.09L1439.7,571.6l578.64,712.15ZM710.13,1233.12,697.71,1223l742-913.2,613.43,755-12.42,10.1-601-739.7Zm-104-147.1-12.36-10.18,846-1027.73L2053.13,803l-12.42,10.1-601-739.73ZM568.81,904.26l-12.36-10.18,839.8-1020.19,12.36,10.18Z"/></g><path class="cls-7" d="M428.92,2596.14q-9.69-23.54-29-33.89T346,2551.89q-39.15,0-59.9,9.68t-20.75,28.11q0,17.52,12.69,25.81t46.31,13.36l67.74,10.6q60.38,9.69,88.5,33.87t28.11,66.61q0,47.93-40.8,74.42t-116.36,26.5q-54.86,0-91-12.91t-55.29-39.18Q186,2762.5,182.36,2722h74.19q4.62,32.27,27.2,47.23t67.74,15q40.53,0,61.07-10.85t20.5-32q0-17-13.59-26.73t-43.1-13.82l-55.31-7.83q-67.28-9.21-98.38-33.42t-31.1-68q0-29.51,18.43-51.15T263.7,2507q35.25-11.74,84.1-11.75,67.31,0,104.16,22.35t48.38,70.27Z"/><path class="cls-7" d="M838.16,2832.55l-32.72-74.66H639.52l-32.24,74.66H531.22l150.7-329.06h83.42L916,2832.55Zm-115.67-265-58.08,131.8H780.55Z"/><path class="cls-7" d="M1212.83,2710h-90.78v-57.13h159v142.87q-30.88,21.67-72.35,33.39a317.14,317.14,0,0,1-87.11,11.77q-92.19,0-144-45.41t-51.85-126q0-52.52,22.35-91.69t65-60.85q42.63-21.65,100.7-21.65,63.59,0,105.06,26.26t55.79,75.12l-73.74,8.75q-9.69-25.78-31.57-38t-57.39-12.22q-52.51,0-81.34,29.28T1001.75,2668q0,55.77,30.43,84.32t89.4,28.58q55.76,0,91.25-17.51Z"/><path class="cls-7" d="M1349.24,2832.55V2503.49h275.59v60.38H1423V2633h192.18v60.38H1423v78.81h212l-9.22,60.37Z"/><path class="cls-7" d="M1701.79,2832.55V2503.49h30.43v302.8h224l-6,26.26Z"/><path class="cls-7" d="M2329.94,2668q0,51.13-21.42,90.08t-62,60.85q-40.53,21.87-95.86,21.89-53.47,0-94-20.52a148.75,148.75,0,0,1-63.14-59.68q-22.57-39.15-22.59-92.62,0-51.17,21.44-90.1t62-60.85q40.53-21.87,95.86-21.87,53.46,0,94,20.5a149.11,149.11,0,0,1,63.14,59.68Q2329.92,2614.57,2329.94,2668Zm-31.8,0q0-68.22-39.17-107.16t-108.76-38.95q-44.68,0-77.88,17.06a120.32,120.32,0,0,0-51.4,50.25q-18.2,33.18-18.2,78.8,0,68.19,39.17,107.14t108.76,38.95q44.73,0,77.9-17.06a120,120,0,0,0,51.38-50.22Q2298.14,2713.66,2298.14,2668Z"/><path class="cls-7" d="M2720.27,2725.64q-9.21,54.86-50.92,85t-108.06,30.19q-52.56,0-91.95-20.52a146.4,146.4,0,0,1-61.29-59.45q-21.91-38.93-21.9-92.4,0-50.7,20.75-89.85t60.37-61.3q39.63-22.14,92.63-22.12,61.77,0,100.92,27t53.47,79.95l-29.5,4.61q-14.28-43.77-44.47-64.29t-80.42-20.52q-42.41,0-74.42,17.28t-49.78,50.48q-17.74,33.18-17.75,78.8,0,67.76,38.25,106.69t105.09,38.95q53.91,0,86.16-22.34t41.5-66.14Z"/></svg>